# AST/ASF file generated using VICON BodyLanguage
# -----------------------------------------------
:version 1.10
:name VICON
:units
  mass 1.0
  length 0.45
  angle deg
:documentation
   .ast/.asf automatically generated from VICON data using
   VICON BodyBuilder and BodyLanguage model FoxedUp or BRILLIANT.MOD
:root
   order TX TY TZ RX RY RZ
   axis XYZ
   position 0 0 0  
   orientation 0 -0 0 
:bonedata
  begin
     id 1 
     name lhipjoint
     direction 0.432694 -0.693742 0.575759 
     length 2.19277 
     axis 0 -0 0  XYZ
  end
  begin
     id 2 
     name lfemur
     direction 0.34202 -0.939693 0  
     length 6.69022  
     axis 0 -0 20  XYZ
    dof rx ry rz
    limits (-160.0 20.0)
           (-70.0 70.0)
           (-60.0 70.0)
  end
  begin
     id 3 
     name ltibia
     direction 0.34202 -0.939693 0   
     length 6.50337   
     axis 0 -0 20   XYZ
    dof rx
    limits (-10.0 170.0)
  end
  begin
     id 4 
     name lfoot
     direction 0.158999 -0.435969 0.885805   
     length 2.70564   
     axis -90 -1.13533e-015 20   XYZ
    dof rx rz
    limits (-45.0 90.0)
           (-70.0 20.0)
  end
  begin
     id 5 
     name ltoes
     direction -0.00592919 0.00964381 0.999936   
     length 1.29929   
     axis -90 -1.13533e-015 20   XYZ
    dof rx
    limits (-90.0 20.0)
  end
  begin
     id 6 
     name rhipjoint
     direction -0.414359 -0.700339 0.581234   
     length 2.17212  
     axis 0 -0 0  XYZ 
  end
  begin
     id 7 
     name rfemur
     direction -0.34202 -0.939693 0   
     length 7.17659   
     axis 0 -0 -20   XYZ
    dof rx ry rz
    limits (-160.0 20.0)
           (-70.0 70.0)
           (-70.0 60.0)
  end
  begin
     id 8 
     name rtibia
     direction -0.34202 -0.939693 0   
     length 6.36669   
     axis 0 -0 -20   XYZ
    dof rx
    limits (-10.0 170.0)
 end
 begin
     id 9 
     name rfoot
     direction -0.137064 -0.37658 0.916188   
     length 2.22351  
     axis -90 1.13533e-015 -20   XYZ
    dof rx rz
    limits (-45.0 90.0)
           (-20.0 70.0)
  end
  begin
     id 10 
     name rtoes
     direction -0.000784077 -0.00289101 0.999996   
     length 1.09522   
     axis -90 1.13533e-015 -20   XYZ
    dof rx
    limits (-90.0 20.0)
  end
  begin
     id 11 
     name lowerback
     direction -0.0176242 0.984912 -0.172157   
     length 1.65301   
     axis 0 -0 0   XYZ
    dof rx ry rz
    limits (-20.0 45.0)
           (-30.0 30.0)
           (-30.0 30.0)
  end
  begin
     id 12 
     name upperback
     direction -0.00218128 0.998776 -0.0494072   
     length 1.67776   
     axis 0 -0 0   XYZ
    dof rx ry rz
    limits (-20.0 45.0)
           (-30.0 30.0)
           (-30.0 30.0)
  end
  begin
     id 13 
     name thorax
     direction 0.00544186 0.999658 0.0255711   
     length 1.72293   
     axis 0 -0 0   XYZ
    dof rx ry rz
    limits (-20.0 45.0)
           (-30.0 30.0)
           (-30.0 30.0)
  end
  begin
     id 14 
     name lowerneck
     direction -0.105325 0.983841 0.144785   
     length 2.14226   
     axis 0 -0 0   XYZ
    dof rx ry rz
    limits (-20.0 45.0)
           (-30.0 30.0)
           (-30.0 30.0)
  end
  begin
     id 15 
     name upperneck
     direction 0.0547957 0.988053 -0.144041   
     length 2.17508   
     axis 0 -0 0   XYZ
    dof rx ry rz
    limits (-20.0 45.0)
           (-30.0 30.0)
           (-30.0 30.0)
  end
  begin
     id 16
     name head
     direction 0.0247488 0.997534 -0.0656813  
     length 2.20048  
     axis 0 -0 0   XYZ
    dof rx ry rz
    limits (-20.0 45.0)
           (-30.0 30.0)
           (-30.0 30.0)
  end
  begin
     id 17 
     name lclavicle
     direction 0.820559 0.567247 -0.0701026  
     length 4.09615  
     axis 0 -0 0   XYZ
    dof ry rz
    limits (-20.0 10.0)
           (0.0 20.0)
  end
  begin
     id 18 
     name lhumerus
     direction 0.999977 -0.0067566 -9.96392e-005   
     length 4.59333   
     axis -180 -30 -90   XYZ
    dof rx ry rz
    limits (-60.0 90.0)
           (-90.0 90.0)
           (-90.0 90.0)
  end
  begin
     id 19
     name lradius
     direction 1 -4.48982e-011 -2.53425e-027   
     length 2.81151   
     axis -180 -30 -90   XYZ
    dof rx
    limits (-10.0 170.0)
  end
  begin
     id 20
     name lwrist
     direction 1 -4.48939e-011 -7.39254e-028   
     length 1.40576   
     axis 2.56395e-016 90 90   XYZ
    dof ry
    limits (-180.0 0.0)
 end
  begin
     id 21 
     name lhand
     direction 1 -4.48939e-011 -1.47851e-027   
     length 0.895651   
     axis 9.43423e-016 90 90   XYZ
    dof rx rz
    limits (-90.0 90.0)
           (-45.0 45.0)
  end
  begin
     id 22 
     name lfingers
     direction 1 -4.48978e-011 -2.95702e-027   
     length 0.722097   
     axis 1.88685e-015 90 90   XYZ
    dof rx
    limits (0.0 90.0)
  end
  begin
     id 23
     name lthumb
     direction 0.707107 -6.34931e-011 0.707107   
     length 1.03679   
     axis -90 45 -9.86935e-015   XYZ
    dof rx rz
    limits (-45.0 45.0)
           (-45.0 45.0)
  end
  begin
     id 24 
     name rclavicle
     direction -0.831414 0.553102 -0.0531864   
     length 4.24872  
     axis 0 -0 0   XYZ 
    dof ry rz
    limits (-10.0 20.0)
           (-20.0 0.0)
  end
  begin
     id 25 
     name rhumerus
     direction -0.999916 -0.000939607 0.0129331  
     length 4.74834   
     axis -180 30 90   XYZ
    dof rx ry rz
    limits (-90.0 60.0)
           (-90.0 90.0)
           (-90.0 90.0)
  end
  begin
     id 26 
     name rradius
     direction -1 -4.48956e-011 -1.31752e-027   
     length 2.79907   
     axis -180 30 90   XYZ
    dof rx
    limits (-10.0 170.0)
  end
  begin
     id 27 
     name rwrist
     direction -1 -4.4897e-011 -7.39254e-028   
     length 1.39954   
     axis 2.56395e-016 -90 -90   XYZ
    dof ry
    limits (-180.0 0.0)
  end
  begin
     id 28
     name rhand
     direction -0.999997 -0.00250697 0.000800838   
     length 0.953304   
     axis 9.43423e-016 -90 -90   XYZ
    dof rx rz
    limits (-90.0 90.0)
           (-45.0 45.0)
  end
  begin
     id 29
     name rfingers
     direction -1 -4.48954e-011 -2.95702e-027   
     length 0.763342   
     axis 1.88685e-015 -90 -90   XYZ
    dof rx
    limits (0.0 90.0)
  end
  begin
     id 30
     name rthumb
     direction -0.709701 -0.00217037 0.7045   
     length 1.10115   
     axis -90 -45 9.86935e-015   XYZ
    dof rx rz
    limits (-45.0 45.0)
           (-45.0 45.0)
  end
:hierarchy
  begin
    root lhipjoint rhipjoint lowerback
    lhipjoint lfemur
    lfemur ltibia
    ltibia lfoot
    lfoot ltoes
    rhipjoint rfemur
    rfemur rtibia
    rtibia rfoot
    rfoot rtoes
    lowerback upperback
    upperback thorax
    thorax lowerneck lclavicle rclavicle
    lowerneck upperneck
    upperneck head
    lclavicle lhumerus
    lhumerus lradius
    lradius lwrist
    lwrist lhand lthumb
    lhand lfingers
    rclavicle rhumerus
    rhumerus rradius
    rradius rwrist
    rwrist rhand rthumb
    rhand rfingers
  end

#!OML:ASF G:\ViconDB\ViconDB\414\test\team2\shane.ASF
:FULLY-SPECIFIED
:DEGREES
66
root -7.52551 16.8928 -11.6796 -8.11825 6.81288 -7.64275
lowerback 9.37233 -0.404848 0.78026
upperback 3.98484 -0.42789 1.75193
thorax -1.11477 -0.21567 1.41303
lowerneck -18.0063 -2.11876 -7.37867
upperneck 21.9938 -3.58117 10.9433
head 10.3417 -0.982921 4.66169
rclavicle -1.33683e-014 -3.97569e-015
rhumerus -32.3877 -2.22036 -86.0635
rradius 24.8611
rwrist 45.7153
rhand -29.1095 -12.4009
rfingers 7.12502
rthumb -2.45743 -42.3665
lclavicle -1.33683e-014 -3.97569e-015
lhumerus -24.5095 -12.2403 90.2721
lradius 21.5986
lwrist -22.6846
lhand -38.4778 6.18805
lfingers 7.12502
lthumb -11.5001 35.8526
rfemur -6.66811 -18.2905 13.5474
rtibia 58.6789
rfoot -13.9193 2.01445
rtoes -12.6295
lfemur 7.70733 13.3156 -11.7681
ltibia 20.1789
lfoot -24.2818 -24.4557
ltoes -8.3684
67
root -7.53192 16.8911 -11.5318 -8.27473 7.76079 -7.68862
lowerback 9.15855 -0.559914 0.685395
upperback 4.20443 -0.648465 1.74755
thorax -0.764967 -0.32697 1.47997
lowerneck -18.1048 -2.22931 -7.62704
upperneck 21.779 -3.72274 11.2668
head 10.3107 -1.03096 4.7972
rclavicle 1.62506e-014 -7.95139e-016
rhumerus -33.1899 -3.13096 -85.3839
rradius 24.5586
rwrist 45.6153
rhand -29.1371 -12.6642
rfingers 7.12502
rthumb -2.48416 -42.6295
lclavicle 1.62506e-014 -7.95139e-016
lhumerus -23.1951 -13.4066 90.6411
lradius 22.3525
lwrist -21.7736
lhand -38.4579 6.26358
lfingers 7.12502
lthumb -11.4809 35.9292
rfemur -7.4567 -17.9012 13.958
rtibia 57.0207
rfoot -14.8941 1.43874
rtoes -12.862
lfemur 8.53461 12.6613 -11.6053
ltibia 19.585
lfoot -24.2786 -24.876
ltoes -8.13837
68
root -7.53702 16.884 -11.3819 -8.46373 8.67515 -7.71872
lowerback 9.09691 -0.71276 0.487013
upperback 4.33067 -0.868144 1.84181
thorax -0.591234 -0.440276 1.70798
lowerneck -18.1136 -2.40289 -7.92205
upperneck 21.6773 -3.87748 11.2907
head 10.2995 -1.12498 4.83162
rclavicle 1.22253e-014 2.62396e-014
rhumerus -34.092 -5.01456 -84.0756
rradius 24.1893
rwrist 46.3699
rhand -28.7503 -12.1917
rfingers 7.12502
rthumb -2.11057 -42.161
lclavicle 1.22253e-014 2.62396e-014
lhumerus -22.0835 -13.8432 91.0429
lradius 23.1781
lwrist -21.1369
lhand -38.7222 6.10426
lfingers 7.12502
lthumb -11.7357 35.7555
rfemur -8.11798 -17.5215 14.3013
rtibia 55.1746
rfoot -15.5555 0.935677
rtoes -12.5389
lfemur 9.50293 12.2119 -11.3945
ltibia 18.8328
lfoot -24.2656 -25.4243
ltoes -8.20132
69
root -7.54127 16.8849 -11.2296 -8.64946 9.61447 -8.11669
lowerback 9.04716 -0.94455 0.720519
upperback 4.38934 -1.15615 1.95884
thorax -0.497522 -0.582094 1.723
lowerneck -18.1039 -2.41227 -7.99502
upperneck 21.621 -3.86163 11.2809
head 10.2767 -1.12546 4.84081
rclavicle -4.87022e-015 -1.27222e-014
rhumerus -35.1103 -6.38394 -83.0236
rradius 23.8056
rwrist 47.3609
rhand -28.6866 -12.0629
rfingers 7.12502
rthumb -2.04904 -42.0328
lclavicle -4.87022e-015 -1.27222e-014
lhumerus -21.2625 -15.1234 91.4853
lradius 24.2695
lwrist -20.2438
lhand -38.9179 7.25085
lfingers 7.12502
lthumb -11.9245 36.8912
rfemur -8.75035 -17.1596 15.0576
rtibia 53.1562
rfoot -16.3495 0.417236
rtoes -12.4069
lfemur 10.4888 11.6209 -10.7938
ltibia 17.8555
lfoot -24.0598 -26.0036
ltoes -8.38801
70
root -7.53781 16.8826 -11.075 -8.85008 10.2523 -8.12395
lowerback 9.09621 -1.03869 0.625909
upperback 4.45654 -1.28761 1.98749
thorax -0.448717 -0.649353 1.81821
lowerneck -18.0092 -2.46307 -8.17019
upperneck 21.481 -3.90163 11.3841
head 10.2187 -1.15037 4.8979
rclavicle 2.54941e-014 1.15295e-014
rhumerus -36.1496 -7.60977 -81.9827
rradius 23.398
rwrist 48.3835
rhand -28.5357 -12.1147
rfingers 7.12502
rthumb -1.90327 -42.086
lclavicle 2.54941e-014 1.15295e-014
lhumerus -20.262 -14.9091 91.6209
lradius 24.9471
lwrist -20.6744
lhand -38.8886 6.44101
lfingers 7.12502
lthumb -11.8962 36.083
rfemur -9.25856 -16.5009 15.3235
rtibia 50.9896
rfoot -16.836 0.102064
rtoes -11.8004
lfemur 11.6699 11.1526 -10.6577
ltibia 16.7538
lfoot -23.835 -26.2528
ltoes -8.45999
71
root -7.53778 16.8788 -10.9197 -9.0234 10.8547 -8.2702
lowerback 9.10872 -1.1021 0.72181
upperback 4.50904 -1.36229 2.0967
thorax -0.398477 -0.686194 1.88376
lowerneck -17.9343 -2.67811 -8.5552
upperneck 21.3533 -4.08598 11.3816
head 10.1879 -1.2708 4.93257
rclavicle -2.76808e-014 5.1684e-015
rhumerus -37.2104 -8.26074 -81.0396
rradius 23.2217
rwrist 48.3685
rhand -28.3914 -12.1508
rfingers 7.12502
rthumb -1.76392 -42.1232
lclavicle -2.76808e-014 5.1684e-015
lhumerus -19.3982 -15.4906 92.0147
lradius 25.7166
lwrist -20.6268
lhand -38.9052 6.63291
lfingers 7.12502
lthumb -11.9122 36.274
rfemur -9.76893 -15.9472 15.7529
rtibia 48.6826
rfoot -17.3252 -0.0209686
rtoes -11.5834
lfemur 12.8791 10.2536 -10.496
ltibia 15.4897
lfoot -23.5177 -26.0736
ltoes -8.47412
72
root -7.53791 16.8804 -10.7654 -9.04144 11.6113 -8.27856
lowerback 9.2297 -1.32191 0.429255
upperback 4.40836 -1.67281 2.1126
thorax -0.551412 -0.845092 2.09805
lowerneck -17.9268 -2.6147 -8.4641
upperneck 21.4202 -4.02066 11.3491
head 10.2 -1.2364 4.91642
rclavicle -2.3059e-014 -1.82882e-014
rhumerus -38.2803 -9.12688 -80.2156
rradius 22.9486
rwrist 48.8256
rhand -28.3517 -12.2321
rfingers 7.12502
rthumb -1.72554 -42.2049
lclavicle -2.3059e-014 -1.82882e-014
lhumerus -18.8251 -15.5681 92.0822
lradius 26.6486
lwrist -20.3394
lhand -39.1891 6.56584
lfingers 7.12502
lthumb -12.186 36.1909
rfemur -10.3747 -15.6638 16.0171
rtibia 46.2782
rfoot -17.6535 -0.139341
rtoes -10.9979
lfemur 13.9476 10.0737 -10.2563
ltibia 14.1016
lfoot -22.8956 -26.8338
ltoes -8.27899
